<svg width="276" height="45" viewBox="0 0 276 45" fill="none" xmlns="http://www.w3.org/2000/svg">
<path d="M58.296 12.48H65.832C66.888 12.48 67.824 12.64 68.64 12.96C69.456 13.28 70.144 13.712 70.704 14.256C71.264 14.8 71.688 15.44 71.976 16.176C72.264 16.896 72.408 17.672 72.408 18.504C72.408 19.624 72.152 20.64 71.64 21.552C71.144 22.448 70.456 23.152 69.576 23.664L72.84 30H68.232L65.76 24.744H62.472V30H58.296V12.48ZM62.472 16.296V20.952H65.52C66.416 20.952 67.072 20.728 67.488 20.28C67.92 19.816 68.136 19.256 68.136 18.6C68.136 17.88 67.92 17.32 67.488 16.92C67.056 16.504 66.4 16.296 65.52 16.296H62.472ZM77.8391 30.264C77.1671 30.264 76.5591 30.176 76.0151 30C75.4711 29.824 75.0071 29.568 74.6231 29.232C74.2391 28.896 73.9431 28.488 73.7351 28.008C73.5271 27.528 73.4231 26.984 73.4231 26.376C73.4231 25.704 73.5591 25.096 73.8311 24.552C74.1031 24.008 74.4951 23.552 75.0071 23.184C75.5191 22.8 76.1351 22.504 76.8551 22.296C77.5751 22.088 78.3831 21.984 79.2791 21.984H82.2551V21.888C82.2551 21.344 82.0631 20.912 81.6791 20.592C81.3111 20.256 80.7671 20.088 80.0471 20.088C79.4391 20.088 78.9351 20.2 78.5351 20.424C78.1351 20.648 77.8231 20.984 77.5991 21.432L73.7831 19.728C74.4711 18.848 75.3031 18.136 76.2791 17.592C77.2711 17.048 78.5191 16.776 80.0231 16.776C81.9911 16.776 83.5031 17.24 84.5591 18.168C85.6151 19.08 86.1431 20.384 86.1431 22.08V30H82.2791V28.272C81.8471 28.88 81.2471 29.368 80.4791 29.736C79.7111 30.088 78.8311 30.264 77.8391 30.264ZM79.2071 27.072C79.5431 27.072 79.8711 27.024 80.1911 26.928C80.5271 26.816 80.8311 26.672 81.1031 26.496C81.3911 26.304 81.6391 26.088 81.8471 25.848C82.0551 25.592 82.2071 25.328 82.3031 25.056V24.792H79.8311C79.0631 24.792 78.5111 24.912 78.1751 25.152C77.8391 25.376 77.6711 25.672 77.6711 26.04C77.6711 26.728 78.1831 27.072 79.2071 27.072ZM88.2915 17.04H92.4435V30H88.2915V17.04ZM87.9555 13.632C87.9555 12.912 88.1715 12.328 88.6035 11.88C89.0515 11.416 89.6355 11.184 90.3555 11.184C91.0755 11.184 91.6595 11.416 92.1075 11.88C92.5555 12.328 92.7795 12.912 92.7795 13.632C92.7795 14.336 92.5555 14.912 92.1075 15.36C91.6595 15.808 91.0755 16.032 90.3555 16.032C89.6355 16.032 89.0515 15.808 88.6035 15.36C88.1715 14.912 87.9555 14.336 87.9555 13.632ZM102.371 30.264C100.691 30.264 99.4591 29.704 98.6751 28.584V35.184H94.6431V17.04H98.6511V18.648C99.0191 18.072 99.5071 17.616 100.115 17.28C100.723 16.944 101.459 16.776 102.323 16.776C103.107 16.776 103.859 16.936 104.579 17.256C105.299 17.56 105.931 18.008 106.475 18.6C107.035 19.176 107.483 19.88 107.819 20.712C108.155 21.544 108.323 22.48 108.323 23.52C108.323 24.576 108.155 25.52 107.819 26.352C107.483 27.184 107.035 27.888 106.475 28.464C105.931 29.04 105.299 29.488 104.579 29.808C103.859 30.112 103.123 30.264 102.371 30.264ZM101.387 26.424C101.787 26.424 102.163 26.352 102.515 26.208C102.883 26.048 103.195 25.84 103.451 25.584C103.723 25.312 103.931 25 104.075 24.648C104.235 24.296 104.315 23.912 104.315 23.496C104.315 23.096 104.235 22.72 104.075 22.368C103.931 22 103.723 21.688 103.451 21.432C103.195 21.16 102.883 20.952 102.515 20.808C102.163 20.648 101.787 20.568 101.387 20.568C100.987 20.568 100.603 20.648 100.235 20.808C99.8831 20.952 99.5711 21.16 99.2991 21.432C99.0431 21.688 98.8351 22 98.6751 22.368C98.5311 22.72 98.4591 23.096 98.4591 23.496C98.4591 23.912 98.5311 24.296 98.6751 24.648C98.8351 25 99.0431 25.312 99.2991 25.584C99.5711 25.84 99.8831 26.048 100.235 26.208C100.603 26.352 100.987 26.424 101.387 26.424ZM116.806 30.24C115.798 30.24 114.862 30.064 113.998 29.712C113.15 29.36 112.422 28.88 111.814 28.272C111.206 27.664 110.726 26.952 110.374 26.136C110.038 25.32 109.87 24.448 109.87 23.52C109.87 22.592 110.038 21.72 110.374 20.904C110.726 20.088 111.206 19.376 111.814 18.768C112.422 18.144 113.15 17.656 113.998 17.304C114.862 16.952 115.798 16.776 116.806 16.776C117.798 16.776 118.718 16.952 119.566 17.304C120.414 17.656 121.15 18.144 121.774 18.768C122.398 19.376 122.886 20.088 123.238 20.904C123.59 21.72 123.766 22.592 123.766 23.52C123.766 24.448 123.59 25.32 123.238 26.136C122.902 26.952 122.422 27.664 121.798 28.272C121.19 28.88 120.462 29.36 119.614 29.712C118.766 30.064 117.83 30.24 116.806 30.24ZM116.83 26.424C117.23 26.424 117.606 26.352 117.958 26.208C118.326 26.048 118.638 25.84 118.894 25.584C119.166 25.312 119.374 25 119.518 24.648C119.678 24.296 119.758 23.912 119.758 23.496C119.758 23.096 119.678 22.72 119.518 22.368C119.374 22 119.166 21.688 118.894 21.432C118.638 21.16 118.326 20.952 117.958 20.808C117.606 20.648 117.23 20.568 116.83 20.568C116.43 20.568 116.046 20.648 115.678 20.808C115.326 20.952 115.014 21.16 114.742 21.432C114.486 21.688 114.278 22 114.118 22.368C113.974 22.72 113.902 23.096 113.902 23.496C113.902 23.912 113.974 24.296 114.118 24.648C114.278 25 114.486 25.312 114.742 25.584C115.014 25.84 115.326 26.048 115.678 26.208C116.046 26.352 116.43 26.424 116.83 26.424ZM125.627 17.04H129.683V18.552C130.099 17.992 130.595 17.56 131.171 17.256C131.763 16.936 132.427 16.776 133.163 16.776C134.603 16.776 135.747 17.224 136.595 18.12C137.443 19.016 137.867 20.264 137.867 21.864V30H133.715V22.68C133.715 21.928 133.555 21.352 133.235 20.952C132.915 20.536 132.419 20.328 131.747 20.328C131.155 20.328 130.667 20.536 130.283 20.952C129.899 21.368 129.707 22.008 129.707 22.872V30H125.627V17.04ZM146.498 30.264C145.522 30.264 144.618 30.096 143.786 29.76C142.954 29.408 142.234 28.928 141.626 28.32C141.018 27.712 140.538 27 140.186 26.184C139.85 25.352 139.682 24.464 139.682 23.52C139.682 22.56 139.85 21.672 140.186 20.856C140.538 20.04 141.018 19.328 141.626 18.72C142.234 18.112 142.954 17.64 143.786 17.304C144.618 16.952 145.522 16.776 146.498 16.776C148.082 16.776 149.426 17.168 150.53 17.952C151.65 18.72 152.466 19.752 152.978 21.048L149.21 22.464C149.018 21.872 148.682 21.408 148.202 21.072C147.722 20.736 147.178 20.568 146.57 20.568C146.186 20.568 145.818 20.648 145.466 20.808C145.114 20.968 144.81 21.184 144.554 21.456C144.298 21.712 144.09 22.024 143.93 22.392C143.786 22.744 143.714 23.12 143.714 23.52C143.714 23.92 143.786 24.296 143.93 24.648C144.09 25 144.298 25.312 144.554 25.584C144.826 25.84 145.13 26.048 145.466 26.208C145.818 26.352 146.186 26.424 146.57 26.424C147.178 26.424 147.706 26.256 148.154 25.92C148.618 25.568 148.962 25.112 149.186 24.552L153.05 26.088C152.762 26.696 152.402 27.256 151.97 27.768C151.554 28.28 151.074 28.72 150.53 29.088C149.986 29.456 149.378 29.744 148.706 29.952C148.034 30.16 147.298 30.264 146.498 30.264ZM160.96 30.24C159.904 30.24 158.952 30.072 158.104 29.736C157.256 29.384 156.536 28.904 155.944 28.296C155.368 27.688 154.92 26.976 154.6 26.16C154.28 25.344 154.12 24.464 154.12 23.52C154.12 22.592 154.288 21.72 154.624 20.904C154.976 20.088 155.456 19.376 156.064 18.768C156.672 18.144 157.392 17.656 158.224 17.304C159.056 16.952 159.96 16.776 160.936 16.776C161.928 16.776 162.832 16.944 163.648 17.28C164.48 17.616 165.192 18.088 165.784 18.696C166.392 19.288 166.856 19.992 167.176 20.808C167.512 21.608 167.68 22.488 167.68 23.448V24.864H158.032C158.256 25.52 158.624 26.024 159.136 26.376C159.648 26.712 160.28 26.88 161.032 26.88C161.656 26.88 162.184 26.76 162.616 26.52C163.064 26.28 163.424 25.944 163.696 25.512L166.96 27.408C166.288 28.304 165.48 29 164.536 29.496C163.608 29.992 162.416 30.24 160.96 30.24ZM160.96 20.136C160.304 20.136 159.736 20.296 159.256 20.616C158.776 20.92 158.408 21.344 158.152 21.888H163.696C163.472 21.312 163.128 20.88 162.664 20.592C162.2 20.288 161.632 20.136 160.96 20.136ZM183.747 30.24C182.403 30.24 181.179 30.008 180.075 29.544C178.971 29.064 178.027 28.424 177.243 27.624C176.459 26.808 175.851 25.856 175.419 24.768C174.987 23.664 174.771 22.488 174.771 21.24C174.771 19.96 174.995 18.776 175.443 17.688C175.891 16.584 176.515 15.632 177.315 14.832C178.115 14.016 179.059 13.384 180.147 12.936C181.251 12.472 182.451 12.24 183.747 12.24C184.595 12.24 185.403 12.344 186.171 12.552C186.939 12.76 187.659 13.056 188.331 13.44C189.003 13.808 189.611 14.264 190.155 14.808C190.699 15.336 191.163 15.92 191.547 16.56L187.875 18.888C187.475 18.104 186.931 17.488 186.243 17.04C185.555 16.576 184.731 16.344 183.771 16.344C183.067 16.344 182.427 16.472 181.851 16.728C181.275 16.984 180.779 17.336 180.363 17.784C179.947 18.216 179.619 18.736 179.379 19.344C179.155 19.936 179.043 20.568 179.043 21.24C179.043 21.912 179.155 22.544 179.379 23.136C179.603 23.712 179.923 24.224 180.339 24.672C180.755 25.104 181.243 25.448 181.803 25.704C182.379 25.96 183.019 26.088 183.723 26.088C184.779 26.088 185.659 25.824 186.363 25.296C187.067 24.752 187.603 24.064 187.971 23.232L191.835 25.296C191.467 26.016 191.011 26.68 190.467 27.288C189.923 27.896 189.307 28.424 188.619 28.872C187.947 29.304 187.195 29.64 186.363 29.88C185.547 30.12 184.675 30.24 183.747 30.24ZM199.845 30.24C198.837 30.24 197.901 30.064 197.037 29.712C196.189 29.36 195.461 28.88 194.853 28.272C194.245 27.664 193.765 26.952 193.413 26.136C193.077 25.32 192.909 24.448 192.909 23.52C192.909 22.592 193.077 21.72 193.413 20.904C193.765 20.088 194.245 19.376 194.853 18.768C195.461 18.144 196.189 17.656 197.037 17.304C197.901 16.952 198.837 16.776 199.845 16.776C200.837 16.776 201.757 16.952 202.605 17.304C203.453 17.656 204.189 18.144 204.813 18.768C205.437 19.376 205.925 20.088 206.277 20.904C206.629 21.72 206.805 22.592 206.805 23.52C206.805 24.448 206.629 25.32 206.277 26.136C205.941 26.952 205.461 27.664 204.837 28.272C204.229 28.88 203.501 29.36 202.653 29.712C201.805 30.064 200.869 30.24 199.845 30.24ZM199.869 26.424C200.269 26.424 200.645 26.352 200.997 26.208C201.365 26.048 201.677 25.84 201.933 25.584C202.205 25.312 202.413 25 202.557 24.648C202.717 24.296 202.797 23.912 202.797 23.496C202.797 23.096 202.717 22.72 202.557 22.368C202.413 22 202.205 21.688 201.933 21.432C201.677 21.16 201.365 20.952 200.997 20.808C200.645 20.648 200.269 20.568 199.869 20.568C199.469 20.568 199.085 20.648 198.717 20.808C198.365 20.952 198.053 21.16 197.781 21.432C197.525 21.688 197.317 22 197.157 22.368C197.013 22.72 196.941 23.096 196.941 23.496C196.941 23.912 197.013 24.296 197.157 24.648C197.317 25 197.525 25.312 197.781 25.584C198.053 25.84 198.365 26.048 198.717 26.208C199.085 26.352 199.469 26.424 199.869 26.424ZM208.667 17.04H212.819V30H208.667V17.04ZM208.331 13.632C208.331 12.912 208.547 12.328 208.979 11.88C209.427 11.416 210.011 11.184 210.73 11.184C211.451 11.184 212.035 11.416 212.483 11.88C212.931 12.328 213.155 12.912 213.155 13.632C213.155 14.336 212.931 14.912 212.483 15.36C212.035 15.808 211.451 16.032 210.73 16.032C210.011 16.032 209.427 15.808 208.979 15.36C208.547 14.912 208.331 14.336 208.331 13.632ZM214.491 17.04H216.483V16.872C216.483 15.784 216.579 14.872 216.771 14.136C216.979 13.384 217.315 12.784 217.779 12.336C218.243 11.888 218.851 11.568 219.603 11.376C220.355 11.184 221.291 11.088 222.411 11.088H223.515V14.76H222.843C222.315 14.76 221.891 14.784 221.571 14.832C221.267 14.864 221.035 14.944 220.875 15.072C220.731 15.2 220.635 15.384 220.587 15.624C220.539 15.848 220.515 16.152 220.515 16.536V17.04H223.515V20.664H220.515V30H216.483V20.664H214.491V17.04ZM224.897 17.04H226.889V16.872C226.889 15.784 226.985 14.872 227.177 14.136C227.385 13.384 227.721 12.784 228.185 12.336C228.649 11.888 229.257 11.568 230.009 11.376C230.761 11.184 231.697 11.088 232.817 11.088H233.921V14.76H233.249C232.721 14.76 232.297 14.784 231.977 14.832C231.673 14.864 231.441 14.944 231.281 15.072C231.137 15.2 231.041 15.384 230.993 15.624C230.945 15.848 230.921 16.152 230.921 16.536V17.04H233.921V20.664H230.921V30H226.889V20.664H224.897V17.04ZM240.37 30.264C238.898 30.264 237.738 29.816 236.89 28.92C236.058 28.024 235.642 26.76 235.642 25.128V17.04H239.794V24.36C239.794 25.112 239.954 25.688 240.274 26.088C240.594 26.488 241.09 26.688 241.762 26.688C242.354 26.688 242.834 26.488 243.202 26.088C243.586 25.672 243.778 25.032 243.778 24.168V17.04L247.882 17.016V29.976L243.826 30V28.512C243.41 29.072 242.906 29.504 242.314 29.808C241.738 30.112 241.09 30.264 240.37 30.264ZM250.127 17.04H254.111V18.864C254.447 18.112 254.927 17.576 255.551 17.256C256.175 16.936 256.911 16.776 257.759 16.776C258.175 16.776 258.567 16.824 258.935 16.92C259.303 17.016 259.639 17.136 259.943 17.28L258.551 21.312C258.359 21.168 258.095 21.048 257.759 20.952C257.439 20.84 257.095 20.784 256.727 20.784C255.927 20.784 255.295 21 254.831 21.432C254.367 21.864 254.135 22.6 254.135 23.64V30H250.127V17.04ZM266.85 30.24C265.794 30.24 264.842 30.072 263.994 29.736C263.146 29.384 262.426 28.904 261.834 28.296C261.258 27.688 260.81 26.976 260.49 26.16C260.17 25.344 260.01 24.464 260.01 23.52C260.01 22.592 260.178 21.72 260.514 20.904C260.866 20.088 261.346 19.376 261.954 18.768C262.562 18.144 263.282 17.656 264.114 17.304C264.946 16.952 265.85 16.776 266.826 16.776C267.818 16.776 268.722 16.944 269.538 17.28C270.37 17.616 271.082 18.088 271.674 18.696C272.282 19.288 272.746 19.992 273.066 20.808C273.402 21.608 273.57 22.488 273.57 23.448V24.864H263.922C264.146 25.52 264.514 26.024 265.026 26.376C265.538 26.712 266.17 26.88 266.922 26.88C267.546 26.88 268.074 26.76 268.506 26.52C268.954 26.28 269.314 25.944 269.586 25.512L272.85 27.408C272.178 28.304 271.37 29 270.426 29.496C269.498 29.992 268.306 30.24 266.85 30.24ZM266.85 20.136C266.194 20.136 265.626 20.296 265.146 20.616C264.666 20.92 264.298 21.344 264.042 21.888H269.586C269.362 21.312 269.018 20.88 268.554 20.592C268.09 20.288 267.522 20.136 266.85 20.136Z" fill="white"/>
<path fill-rule="evenodd" clip-rule="evenodd" d="M19.9312 0.0289256C14.8699 0.647774 10.0768 2.96976 6.51545 6.52833C3.36716 9.67433 1.18139 13.7717 0.280356 18.2167C0.0295704 19.4534 -0.00421514 19.9761 0.000380721 22.5402C0.00522501 25.2215 0.0325515 25.5832 0.338984 27.0211C2.21733 35.8369 9.09237 42.7255 17.8677 44.5845C19.9276 45.0208 23.5399 45.1334 25.6449 44.8269C33.9292 43.6205 40.7554 38.1015 43.6921 30.2355C44.7314 27.4518 45.0781 25.19 44.9857 21.7955C44.9328 19.8517 44.857 19.0793 44.6009 17.8719C42.7256 9.03363 35.6983 2.09883 26.8099 0.315388C25.738 0.100417 24.9323 0.0372414 22.9123 0.0100598C21.5118 -0.00880607 20.1703 -0.000366042 19.9312 0.0289256ZM25.7378 2.37511C31.8017 3.36917 36.9587 6.93506 40.1372 12.3316C41.954 15.4162 42.8054 18.654 42.8054 22.4781C42.8054 28.1246 40.8018 32.9539 36.8241 36.8958C33.6108 40.0801 29.8642 41.9597 25.3344 42.6602C24.0524 42.8584 20.8958 42.8578 19.6206 42.659C15.1156 41.9566 11.3792 40.0955 8.2189 36.9795C3.85942 32.6813 1.72495 27.0113 2.1823 20.9443C2.45494 17.3266 3.54056 14.1931 5.59864 11.0826C6.785 9.28956 9.33669 6.75558 11.1742 5.54594C14.0646 3.64285 17.1276 2.5428 20.5143 2.19142C21.8605 2.05179 24.2855 2.13706 25.7378 2.37511ZM13.8447 9.46879C13.3773 9.64603 13.0995 10.0502 13.0988 10.5534C13.0983 11.0572 13.1293 11.0903 20.5205 18.4575C25.3515 23.2727 28.2247 26.0444 28.7502 26.3963C30.7263 27.7192 32.6642 27.9364 34.559 27.0473C36.4625 26.1541 37.7063 23.7475 37.3397 21.6674C36.868 18.9918 34.5161 17.1412 31.8691 17.363C30.2761 17.4964 28.8407 18.2589 27.1573 19.866C26.6178 20.3812 26.1251 20.8026 26.0628 20.8026C25.912 20.8026 24.1544 19.0304 24.1544 18.8784C24.1544 18.8132 25.8871 17.0252 28.005 14.905C31.6891 11.2169 31.8556 11.0301 31.8556 10.5837C31.8556 9.94689 31.4162 9.50788 30.7789 9.50788C30.3322 9.50788 30.1453 9.6742 26.4543 13.3555C24.3325 15.4717 22.5421 17.2032 22.4756 17.2032C22.4092 17.2032 20.6217 15.4748 18.5035 13.3623C14.7678 9.63696 14.3413 9.28062 13.8447 9.46879ZM11.3471 17.5071C9.41048 18.0408 7.96949 19.6582 7.60914 21.7028C7.24893 23.7459 8.50857 26.1617 10.396 27.0473C12.8538 28.2006 15.1423 27.5715 17.8915 24.9872L18.895 24.0438L19.9089 25.0623L20.923 26.0809L17.0191 29.9804C14.7618 32.2351 13.0826 34.0092 13.038 34.1867C12.8589 34.9002 13.6066 35.6718 14.3244 35.5142C14.5509 35.4645 15.9457 34.1568 18.568 31.5355L22.4743 27.6309L26.3931 31.5396C30.2406 35.3773 30.321 35.4484 30.8137 35.4484C31.473 35.4484 31.8804 35.0408 31.8804 34.381C31.8804 33.9292 31.6403 33.6756 24.26 26.3335C16.2255 18.3407 16.0585 18.1936 14.3488 17.6111C13.426 17.2969 12.2573 17.2564 11.3471 17.5071ZM14.3054 19.9947C14.8665 20.2751 15.5575 20.7882 16.2649 21.4496L17.3578 22.4713L16.4397 23.3333C14.4208 25.2288 12.9228 25.7886 11.5441 25.1627C10.405 24.6457 9.81864 23.7336 9.8123 22.4689C9.80845 21.7038 9.85627 21.5124 10.1849 20.9795C10.7352 20.0873 11.6581 19.5614 12.6735 19.5614C13.2993 19.5614 13.5967 19.6403 14.3054 19.9947ZM33.3885 19.7473C34.5669 20.2393 35.2879 21.4334 35.1728 22.7023C35.0032 24.5703 33.2323 25.7775 31.4099 25.2677C30.6536 25.0562 29.6351 24.3744 28.5145 23.3297L27.5954 22.4729L28.6893 21.4504C30.5043 19.7536 32.0563 19.1911 33.3885 19.7473Z" fill="white"/>
</svg>
