<svg width="276" height="45" viewBox="0 0 276 45" fill="none" xmlns="http://www.w3.org/2000/svg">
<path d="M58.296 13.48H62.496V26.992H70.128V31H58.296V13.48ZM76.2688 31.264C75.5968 31.264 74.9888 31.176 74.4448 31C73.9008 30.824 73.4368 30.568 73.0528 30.232C72.6688 29.896 72.3728 29.488 72.1648 29.008C71.9568 28.528 71.8528 27.984 71.8528 27.376C71.8528 26.704 71.9888 26.096 72.2608 25.552C72.5328 25.008 72.9248 24.552 73.4368 24.184C73.9488 23.8 74.5648 23.504 75.2848 23.296C76.0048 23.088 76.8128 22.984 77.7088 22.984H80.6848V22.888C80.6848 22.344 80.4928 21.912 80.1088 21.592C79.7408 21.256 79.1968 21.088 78.4768 21.088C77.8688 21.088 77.3648 21.2 76.9648 21.424C76.5648 21.648 76.2528 21.984 76.0288 22.432L72.2128 20.728C72.9008 19.848 73.7328 19.136 74.7088 18.592C75.7008 18.048 76.9488 17.776 78.4528 17.776C80.4208 17.776 81.9328 18.24 82.9888 19.168C84.0448 20.08 84.5728 21.384 84.5728 23.08V31H80.7088V29.272C80.2768 29.88 79.6768 30.368 78.9088 30.736C78.1408 31.088 77.2608 31.264 76.2688 31.264ZM77.6368 28.072C77.9728 28.072 78.3008 28.024 78.6208 27.928C78.9568 27.816 79.2608 27.672 79.5328 27.496C79.8208 27.304 80.0688 27.088 80.2768 26.848C80.4848 26.592 80.6368 26.328 80.7328 26.056V25.792H78.2608C77.4928 25.792 76.9408 25.912 76.6048 26.152C76.2688 26.376 76.1008 26.672 76.1008 27.04C76.1008 27.728 76.6128 28.072 77.6368 28.072ZM92.3507 13.48H99.2867C101.415 13.48 103.007 13.904 104.063 14.752C105.135 15.6 105.671 16.848 105.671 18.496C105.671 19.296 105.511 19.976 105.191 20.536C104.887 21.096 104.455 21.56 103.895 21.928C104.567 22.312 105.087 22.816 105.455 23.44C105.823 24.048 106.007 24.8 106.007 25.696C106.007 27.52 105.407 28.864 104.207 29.728C103.023 30.576 101.383 31 99.2867 31H92.3507V13.48ZM96.4307 23.92V27.328H99.3827C100.199 27.328 100.791 27.184 101.159 26.896C101.543 26.592 101.735 26.16 101.735 25.6C101.735 25.04 101.559 24.624 101.207 24.352C100.855 24.064 100.223 23.92 99.3107 23.92H96.4307ZM96.4307 17.128V20.248H99.4787C100.231 20.248 100.759 20.096 101.063 19.792C101.367 19.488 101.519 19.104 101.519 18.64C101.519 18.16 101.359 17.792 101.039 17.536C100.719 17.264 100.191 17.128 99.4547 17.128H96.4307ZM114.436 31.24C113.38 31.24 112.428 31.072 111.58 30.736C110.732 30.384 110.012 29.904 109.42 29.296C108.844 28.688 108.396 27.976 108.076 27.16C107.756 26.344 107.596 25.464 107.596 24.52C107.596 23.592 107.764 22.72 108.1 21.904C108.452 21.088 108.932 20.376 109.54 19.768C110.148 19.144 110.868 18.656 111.7 18.304C112.532 17.952 113.436 17.776 114.412 17.776C115.404 17.776 116.308 17.944 117.124 18.28C117.956 18.616 118.668 19.088 119.26 19.696C119.868 20.288 120.332 20.992 120.652 21.808C120.988 22.608 121.156 23.488 121.156 24.448V25.864H111.508C111.732 26.52 112.1 27.024 112.612 27.376C113.124 27.712 113.756 27.88 114.508 27.88C115.132 27.88 115.66 27.76 116.092 27.52C116.54 27.28 116.9 26.944 117.172 26.512L120.436 28.408C119.764 29.304 118.956 30 118.012 30.496C117.084 30.992 115.892 31.24 114.436 31.24ZM114.436 21.136C113.78 21.136 113.212 21.296 112.732 21.616C112.252 21.92 111.884 22.344 111.628 22.888H117.172C116.948 22.312 116.604 21.88 116.14 21.592C115.676 21.288 115.108 21.136 114.436 21.136ZM123.002 12.088H127.01V31H123.002V12.088ZM129.213 12.088H133.221V31H129.213V12.088ZM141.881 31.24C140.825 31.24 139.873 31.072 139.025 30.736C138.177 30.384 137.457 29.904 136.865 29.296C136.289 28.688 135.841 27.976 135.521 27.16C135.201 26.344 135.041 25.464 135.041 24.52C135.041 23.592 135.209 22.72 135.545 21.904C135.897 21.088 136.377 20.376 136.985 19.768C137.593 19.144 138.313 18.656 139.145 18.304C139.977 17.952 140.881 17.776 141.857 17.776C142.849 17.776 143.753 17.944 144.569 18.28C145.401 18.616 146.113 19.088 146.705 19.696C147.313 20.288 147.777 20.992 148.097 21.808C148.433 22.608 148.601 23.488 148.601 24.448V25.864H138.953C139.177 26.52 139.545 27.024 140.057 27.376C140.569 27.712 141.201 27.88 141.953 27.88C142.577 27.88 143.105 27.76 143.537 27.52C143.985 27.28 144.345 26.944 144.617 26.512L147.881 28.408C147.209 29.304 146.401 30 145.457 30.496C144.529 30.992 143.337 31.24 141.881 31.24ZM141.881 21.136C141.225 21.136 140.657 21.296 140.177 21.616C139.697 21.92 139.329 22.344 139.073 22.888H144.617C144.393 22.312 144.049 21.88 143.585 21.592C143.121 21.288 142.553 21.136 141.881 21.136ZM160.541 17.344H155.789V13.48H169.325V17.344H164.621V31H160.541V17.344ZM170.838 18.04H174.99V31H170.838V18.04ZM170.502 14.632C170.502 13.912 170.718 13.328 171.15 12.88C171.598 12.416 172.182 12.184 172.902 12.184C173.622 12.184 174.206 12.416 174.654 12.88C175.102 13.328 175.326 13.912 175.326 14.632C175.326 15.336 175.102 15.912 174.654 16.36C174.206 16.808 173.622 17.032 172.902 17.032C172.182 17.032 171.598 16.808 171.15 16.36C170.718 15.912 170.502 15.336 170.502 14.632ZM182.83 31.12C182.078 31.12 181.342 30.968 180.622 30.664C179.902 30.36 179.262 29.928 178.702 29.368C178.142 28.792 177.694 28.096 177.358 27.28C177.022 26.448 176.854 25.512 176.854 24.472C176.854 23.448 177.022 22.52 177.358 21.688C177.694 20.856 178.134 20.152 178.678 19.576C179.238 19 179.878 18.56 180.598 18.256C181.334 17.936 182.094 17.776 182.878 17.776C183.71 17.776 184.43 17.936 185.038 18.256C185.646 18.56 186.142 18.984 186.526 19.528V18.04H190.558V30.112C190.558 31.024 190.398 31.88 190.078 32.68C189.758 33.48 189.294 34.168 188.686 34.744C188.094 35.336 187.366 35.8 186.502 36.136C185.654 36.472 184.694 36.64 183.622 36.64C182.214 36.64 181.014 36.44 180.022 36.04C179.03 35.656 178.15 35.048 177.382 34.216L180.742 31.672C181.11 32.104 181.494 32.448 181.894 32.704C182.31 32.976 182.846 33.112 183.502 33.112C184.366 33.112 185.078 32.84 185.638 32.296C186.214 31.768 186.502 31.072 186.502 30.208V29.32C186.086 29.896 185.566 30.344 184.942 30.664C184.334 30.968 183.63 31.12 182.83 31.12ZM183.79 27.376C184.19 27.376 184.566 27.304 184.918 27.16C185.286 27 185.598 26.792 185.854 26.536C186.126 26.264 186.334 25.952 186.478 25.6C186.638 25.248 186.718 24.864 186.718 24.448C186.718 24.032 186.638 23.648 186.478 23.296C186.334 22.944 186.126 22.64 185.854 22.384C185.598 22.112 185.286 21.904 184.918 21.76C184.566 21.6 184.19 21.52 183.79 21.52C183.39 21.52 183.006 21.6 182.638 21.76C182.286 21.904 181.974 22.112 181.702 22.384C181.446 22.64 181.238 22.944 181.078 23.296C180.934 23.648 180.862 24.032 180.862 24.448C180.862 24.864 180.934 25.248 181.078 25.6C181.238 25.952 181.446 26.264 181.702 26.536C181.974 26.792 182.286 27 182.638 27.16C183.006 27.304 183.39 27.376 183.79 27.376ZM192.823 18.04H196.879V19.552C197.295 18.992 197.791 18.56 198.367 18.256C198.959 17.936 199.623 17.776 200.359 17.776C201.799 17.776 202.943 18.224 203.791 19.12C204.639 20.016 205.063 21.264 205.063 22.864V31H200.911V23.68C200.911 22.928 200.751 22.352 200.431 21.952C200.111 21.536 199.615 21.328 198.943 21.328C198.351 21.328 197.863 21.536 197.479 21.952C197.095 22.368 196.903 23.008 196.903 23.872V31H192.823V18.04ZM211.152 31.264C210.48 31.264 209.872 31.176 209.328 31C208.784 30.824 208.32 30.568 207.936 30.232C207.552 29.896 207.256 29.488 207.048 29.008C206.84 28.528 206.736 27.984 206.736 27.376C206.736 26.704 206.872 26.096 207.144 25.552C207.416 25.008 207.808 24.552 208.32 24.184C208.832 23.8 209.448 23.504 210.168 23.296C210.888 23.088 211.696 22.984 212.592 22.984H215.568V22.888C215.568 22.344 215.376 21.912 214.992 21.592C214.624 21.256 214.08 21.088 213.36 21.088C212.752 21.088 212.248 21.2 211.848 21.424C211.448 21.648 211.136 21.984 210.912 22.432L207.096 20.728C207.784 19.848 208.616 19.136 209.592 18.592C210.584 18.048 211.832 17.776 213.336 17.776C215.304 17.776 216.816 18.24 217.872 19.168C218.928 20.08 219.456 21.384 219.456 23.08V31H215.592V29.272C215.16 29.88 214.56 30.368 213.792 30.736C213.024 31.088 212.144 31.264 211.152 31.264ZM212.52 28.072C212.856 28.072 213.184 28.024 213.504 27.928C213.84 27.816 214.144 27.672 214.416 27.496C214.704 27.304 214.952 27.088 215.16 26.848C215.368 26.592 215.52 26.328 215.616 26.056V25.792H213.144C212.376 25.792 211.824 25.912 211.488 26.152C211.152 26.376 210.984 26.672 210.984 27.04C210.984 27.728 211.496 28.072 212.52 28.072ZM227.127 31.264C225.415 31.264 224.039 30.96 222.999 30.352C221.959 29.728 221.199 28.84 220.719 27.688L224.775 26.536C224.951 27.064 225.263 27.456 225.711 27.712C226.159 27.968 226.663 28.096 227.223 28.096C227.735 28.096 228.119 28 228.375 27.808C228.647 27.6 228.783 27.36 228.783 27.088C228.783 26.912 228.711 26.768 228.567 26.656C228.423 26.528 228.223 26.424 227.967 26.344C227.727 26.248 227.439 26.168 227.103 26.104C226.767 26.024 226.399 25.944 225.999 25.864C225.439 25.752 224.879 25.624 224.319 25.48C223.775 25.32 223.271 25.096 222.807 24.808C222.359 24.52 221.991 24.152 221.703 23.704C221.431 23.24 221.295 22.656 221.295 21.952C221.295 21.376 221.431 20.832 221.703 20.32C221.975 19.792 222.359 19.336 222.855 18.952C223.351 18.568 223.943 18.272 224.631 18.064C225.319 17.84 226.079 17.728 226.911 17.728C227.663 17.728 228.335 17.8 228.927 17.944C229.519 18.088 230.047 18.296 230.511 18.568C230.991 18.824 231.415 19.144 231.783 19.528C232.167 19.912 232.519 20.344 232.839 20.824L228.999 22C228.599 21.184 227.895 20.776 226.887 20.776C226.391 20.776 226.023 20.856 225.783 21.016C225.543 21.16 225.423 21.368 225.423 21.64C225.423 21.944 225.647 22.168 226.095 22.312C226.559 22.456 227.247 22.616 228.159 22.792C228.703 22.904 229.255 23.04 229.815 23.2C230.391 23.36 230.911 23.592 231.375 23.896C231.855 24.184 232.239 24.568 232.527 25.048C232.831 25.512 232.983 26.104 232.983 26.824C232.983 27.368 232.863 27.904 232.623 28.432C232.383 28.96 232.023 29.44 231.543 29.872C231.063 30.288 230.455 30.624 229.719 30.88C228.983 31.136 228.119 31.264 227.127 31.264ZM240.275 31.264C238.563 31.264 237.187 30.96 236.147 30.352C235.107 29.728 234.347 28.84 233.867 27.688L237.923 26.536C238.099 27.064 238.411 27.456 238.859 27.712C239.307 27.968 239.811 28.096 240.371 28.096C240.883 28.096 241.267 28 241.523 27.808C241.795 27.6 241.931 27.36 241.931 27.088C241.931 26.912 241.859 26.768 241.715 26.656C241.571 26.528 241.371 26.424 241.115 26.344C240.875 26.248 240.587 26.168 240.251 26.104C239.915 26.024 239.547 25.944 239.147 25.864C238.587 25.752 238.027 25.624 237.467 25.48C236.923 25.32 236.419 25.096 235.955 24.808C235.507 24.52 235.139 24.152 234.851 23.704C234.579 23.24 234.443 22.656 234.443 21.952C234.443 21.376 234.579 20.832 234.851 20.32C235.123 19.792 235.507 19.336 236.003 18.952C236.499 18.568 237.091 18.272 237.779 18.064C238.467 17.84 239.227 17.728 240.059 17.728C240.811 17.728 241.483 17.8 242.075 17.944C242.667 18.088 243.195 18.296 243.659 18.568C244.139 18.824 244.563 19.144 244.931 19.528C245.315 19.912 245.667 20.344 245.987 20.824L242.147 22C241.747 21.184 241.043 20.776 240.035 20.776C239.539 20.776 239.171 20.856 238.931 21.016C238.691 21.16 238.571 21.368 238.571 21.64C238.571 21.944 238.795 22.168 239.243 22.312C239.707 22.456 240.395 22.616 241.307 22.792C241.851 22.904 242.403 23.04 242.963 23.2C243.539 23.36 244.059 23.592 244.523 23.896C245.003 24.184 245.387 24.568 245.675 25.048C245.979 25.512 246.131 26.104 246.131 26.824C246.131 27.368 246.011 27.904 245.771 28.432C245.531 28.96 245.171 29.44 244.691 29.872C244.211 30.288 243.603 30.624 242.867 30.88C242.131 31.136 241.267 31.264 240.275 31.264ZM254.358 31.24C253.302 31.24 252.35 31.072 251.502 30.736C250.654 30.384 249.934 29.904 249.342 29.296C248.766 28.688 248.318 27.976 247.998 27.16C247.678 26.344 247.518 25.464 247.518 24.52C247.518 23.592 247.686 22.72 248.022 21.904C248.374 21.088 248.854 20.376 249.462 19.768C250.07 19.144 250.79 18.656 251.622 18.304C252.454 17.952 253.358 17.776 254.334 17.776C255.326 17.776 256.23 17.944 257.046 18.28C257.878 18.616 258.59 19.088 259.182 19.696C259.79 20.288 260.254 20.992 260.574 21.808C260.91 22.608 261.078 23.488 261.078 24.448V25.864H251.43C251.654 26.52 252.022 27.024 252.534 27.376C253.046 27.712 253.678 27.88 254.43 27.88C255.054 27.88 255.582 27.76 256.014 27.52C256.462 27.28 256.822 26.944 257.094 26.512L260.358 28.408C259.686 29.304 258.878 30 257.934 30.496C257.006 30.992 255.814 31.24 254.358 31.24ZM254.358 21.136C253.702 21.136 253.134 21.296 252.654 21.616C252.174 21.92 251.806 22.344 251.55 22.888H257.094C256.87 22.312 256.526 21.88 256.062 21.592C255.598 21.288 255.03 21.136 254.358 21.136Z" fill="white"/>
<circle cx="22.5" cy="22.5" r="22.5" fill="white"/>
<circle cx="22.5" cy="22.5" r="14" stroke="black" stroke-linejoin="round"/>
<circle cx="22.5" cy="22.5" r="19" stroke="black"/>
<path d="M11.5 38.0002C13 35.6669 18.1 31.1002 26.5 31.5002M23.5 36.5C21.8333 37 18.2 38.6 17 41M29.5 40.5C28.1667 37.8333 25.3 30.5 24.5 22.5" stroke="black"/>
<path d="M19.0005 25.5C18.6557 25.8447 18.311 26.1829 17.9693 26.5M17.9693 26.5C15.3374 28.9425 12.8856 30.1381 12.0005 23.5H10.5M17.9693 26.5C17.9797 27.5 18.4005 30.1 20.0005 32.5M16.0005 10.5C14.3338 11.5 11.2005 14.6 12.0005 19" stroke="black" stroke-linejoin="round"/>
<path d="M12 19C12.1667 20 12.1 22.3 10.5 23.5M16 10C15.6667 12.1667 16.3158 19.0622 22.5 18.5C25.1182 18.262 26.1124 19.2326 26.2376 20.4409M24.5 24C25.0981 23.6194 25.6784 22.8486 25.998 22M25.998 22C26.6653 25.8333 29.6 34 36 36M25.998 22C26.1214 21.6723 26.206 21.3329 26.2376 21M26.2376 21C27.9917 24.5 33.1 31.5 39.5 31.5M26.2376 21C26.2556 20.8104 26.2565 20.623 26.2376 20.4409M28.5 10C29.8333 10.8333 32.4 13.4 32 17C31.5 21.5 34 27.5 40.5 28.5M26.2376 20.4409C28.4917 22.4606 34.7 25.4 41.5 21" stroke="black" stroke-linejoin="round"/>
</svg>
