<svg width="45" height="45" viewBox="0 0 45 45" fill="none" xmlns="http://www.w3.org/2000/svg">
<path fill-rule="evenodd" clip-rule="evenodd" d="M19.9312 0.0289256C14.8699 0.647774 10.0768 2.96976 6.51545 6.52833C3.36716 9.67433 1.18139 13.7717 0.280356 18.2167C0.0295704 19.4534 -0.00421514 19.9761 0.000380721 22.5402C0.00522501 25.2215 0.0325515 25.5832 0.338984 27.0211C2.21733 35.8369 9.09237 42.7255 17.8677 44.5845C19.9276 45.0208 23.5399 45.1334 25.6449 44.8269C33.9292 43.6205 40.7554 38.1015 43.6921 30.2355C44.7314 27.4518 45.0781 25.19 44.9857 21.7955C44.9328 19.8517 44.857 19.0793 44.6009 17.8719C42.7256 9.03363 35.6983 2.09883 26.8099 0.315388C25.738 0.100417 24.9323 0.0372414 22.9123 0.0100598C21.5118 -0.00880607 20.1703 -0.000366042 19.9312 0.0289256ZM25.7378 2.37511C31.8017 3.36917 36.9587 6.93506 40.1372 12.3316C41.954 15.4162 42.8054 18.654 42.8054 22.4781C42.8054 28.1246 40.8018 32.9539 36.8241 36.8958C33.6108 40.0801 29.8642 41.9597 25.3344 42.6602C24.0524 42.8584 20.8958 42.8578 19.6206 42.659C15.1156 41.9566 11.3792 40.0955 8.2189 36.9795C3.85942 32.6813 1.72495 27.0113 2.1823 20.9443C2.45494 17.3266 3.54056 14.1931 5.59864 11.0826C6.785 9.28956 9.33669 6.75558 11.1742 5.54594C14.0646 3.64285 17.1276 2.5428 20.5143 2.19142C21.8605 2.05179 24.2855 2.13706 25.7378 2.37511ZM13.8447 9.46879C13.3773 9.64603 13.0995 10.0502 13.0988 10.5534C13.0983 11.0572 13.1293 11.0903 20.5205 18.4575C25.3515 23.2727 28.2247 26.0444 28.7502 26.3963C30.7263 27.7192 32.6642 27.9364 34.559 27.0473C36.4625 26.1541 37.7063 23.7475 37.3397 21.6674C36.868 18.9918 34.5161 17.1412 31.8691 17.363C30.2761 17.4964 28.8407 18.2589 27.1573 19.866C26.6178 20.3812 26.1251 20.8026 26.0628 20.8026C25.912 20.8026 24.1544 19.0304 24.1544 18.8784C24.1544 18.8132 25.8871 17.0252 28.005 14.905C31.6891 11.2169 31.8556 11.0301 31.8556 10.5837C31.8556 9.94689 31.4162 9.50788 30.7789 9.50788C30.3322 9.50788 30.1453 9.6742 26.4543 13.3555C24.3325 15.4717 22.5421 17.2032 22.4756 17.2032C22.4092 17.2032 20.6217 15.4748 18.5035 13.3623C14.7678 9.63696 14.3413 9.28062 13.8447 9.46879ZM11.3471 17.5071C9.41048 18.0408 7.96949 19.6582 7.60914 21.7028C7.24893 23.7459 8.50857 26.1617 10.396 27.0473C12.8538 28.2006 15.1423 27.5715 17.8915 24.9872L18.895 24.0438L19.9089 25.0623L20.923 26.0809L17.0191 29.9804C14.7618 32.2351 13.0826 34.0092 13.038 34.1867C12.8589 34.9002 13.6066 35.6718 14.3244 35.5142C14.5509 35.4645 15.9457 34.1568 18.568 31.5355L22.4743 27.6309L26.3931 31.5396C30.2406 35.3773 30.321 35.4484 30.8137 35.4484C31.473 35.4484 31.8804 35.0408 31.8804 34.381C31.8804 33.9292 31.6403 33.6756 24.26 26.3335C16.2255 18.3407 16.0585 18.1936 14.3488 17.6111C13.426 17.2969 12.2573 17.2564 11.3471 17.5071ZM14.3054 19.9947C14.8665 20.2751 15.5575 20.7882 16.2649 21.4496L17.3578 22.4713L16.4397 23.3333C14.4208 25.2288 12.9228 25.7886 11.5441 25.1627C10.405 24.6457 9.81864 23.7336 9.8123 22.4689C9.80845 21.7038 9.85627 21.5124 10.1849 20.9795C10.7352 20.0873 11.6581 19.5614 12.6735 19.5614C13.2993 19.5614 13.5967 19.6403 14.3054 19.9947ZM33.3885 19.7473C34.5669 20.2393 35.2879 21.4334 35.1728 22.7023C35.0032 24.5703 33.2323 25.7775 31.4099 25.2677C30.6536 25.0562 29.6351 24.3744 28.5145 23.3297L27.5954 22.4729L28.6893 21.4504C30.5043 19.7536 32.0563 19.1911 33.3885 19.7473Z" fill="white"/>
</svg>
