<svg width="45" height="45" viewBox="0 0 45 45" fill="none" xmlns="http://www.w3.org/2000/svg">
<circle cx="22.5" cy="22.5" r="22.5" fill="white"/>
<circle cx="22.5" cy="22.5" r="14" stroke="black" stroke-linejoin="round"/>
<circle cx="22.5" cy="22.5" r="19" stroke="black"/>
<path d="M11.5 38.0002C13 35.6669 18.1 31.1002 26.5 31.5002M23.5 36.5C21.8333 37 18.2 38.6 17 41M29.5 40.5C28.1667 37.8333 25.3 30.5 24.5 22.5" stroke="black"/>
<path d="M19.0005 25.5C18.6557 25.8447 18.311 26.1829 17.9693 26.5M17.9693 26.5C15.3374 28.9425 12.8856 30.1381 12.0005 23.5H10.5M17.9693 26.5C17.9797 27.5 18.4005 30.1 20.0005 32.5M16.0005 10.5C14.3338 11.5 11.2005 14.6 12.0005 19" stroke="black" stroke-linejoin="round"/>
<path d="M12 19C12.1667 20 12.1 22.3 10.5 23.5M16 10C15.6667 12.1667 16.3158 19.0622 22.5 18.5C25.1182 18.262 26.1124 19.2326 26.2376 20.4409M24.5 24C25.0981 23.6194 25.6784 22.8486 25.998 22M25.998 22C26.6653 25.8333 29.6 34 36 36M25.998 22C26.1214 21.6723 26.206 21.3329 26.2376 21M26.2376 21C27.9917 24.5 33.1 31.5 39.5 31.5M26.2376 21C26.2556 20.8104 26.2565 20.623 26.2376 20.4409M28.5 10C29.8333 10.8333 32.4 13.4 32 17C31.5 21.5 34 27.5 40.5 28.5M26.2376 20.4409C28.4917 22.4606 34.7 25.4 41.5 21" stroke="black" stroke-linejoin="round"/>
</svg>
